<svg xmlns="http://www.w3.org/2000/svg" viewBox="0 0 64 64">
  <defs><linearGradient id="g" x1="8" y1="8" x2="56" y2="56" gradientUnits="userSpaceOnUse"><stop stop-color="#12355b"/><stop offset="1" stop-color="#0f766e"/></linearGradient></defs>
  <rect width="64" height="64" rx="19" fill="url(#g)"/>
  <path d="M16 17h15c7 0 11 3 11 9 0 3-2 6-5 7 5 1 7 4 7 8 0 7-5 10-13 10H16V17Zm9 7v7h5c2 0 4-1 4-4 0-2-2-3-4-3h-5Zm0 14v6h6c3 0 4-1 4-3s-1-3-4-3h-6Z" fill="#fff"/>
  <path d="m45 17 9 34h-8l-1-6h-9l2-7h6l-3-13 2-8h2Z" fill="#fff" opacity=".94"/>
</svg>
